<?xml version="1.0" encoding="UTF-8"?><svg id="Layer_1" xmlns="http://www.w3.org/2000/svg" viewBox="0 0 1017.1899 947.8355"><defs><style>.cls-1{fill:#8e8e8e;}.cls-2{fill:#3d357b;}.cls-3{fill:#3e367b;}.cls-4{fill:#ea873d;}.cls-5{fill:#fff;}.cls-6{fill:#ed8b00;}.cls-7{fill:#b3b3b3;}.cls-8{fill:#3d367a;}.cls-9{fill:#e9863c;}.cls-10{fill:#3e377b;}</style></defs><path class="cls-1" d="M471.5449,154.5175c67.7422-3.1537,164.1983.2093,222.1242,38.6542,97.0179,64.3899,89.8058,259.7318,19.9956,341.637-85.492,100.3038-323.7163,100.8278-409.4249.7553-65.4584-76.4285-73.4003-233.0898-12.3292-313.7363,38.6575-51.0486,119.3692-64.5046,179.6344-67.3102ZM298.3836,376.0433c10.074-38.4616,28.0775-76.2031,57.3198-103.6519,9.1201-8.5607,34.3639-23.2869,39.4621-31.0933,5.9651-9.134,1.6732-22.1536-9.3269-22.6275-15.1312-.6519-44.7048,17.6617-55.8772,27.9787-30.2126,27.8995-43.7652,76.3473-37.0446,116.4987.5348,3.1949,1.3466,7.9479,2.3798,10.8553.7422,2.0885-.4377,2.4715,3.087,2.0399Z"/><path class="cls-3" d="M223.4327,536.2611l-18.3493-51.4713c-36.931-7.8159-60.0803-25.8618-62.5666-65.3154-2.0365-32.3169-2.2255-81.1096.0105-113.3144,2.6068-37.546,26.7845-55.3867,61.9597-61.8205,20.8083-95.9534,87.614-180.0159,178.4326-218.1554l15.4206,114.6594c-68.9736,10.5036-124.1548,47.7126-150.6076,113.2417-36.1189,89.4741-24.9839,218.7876,37.4724,294.6341,88.5252,107.5043,323.262,109.3791,425.4627,21.3102,87.0651-75.0262,101.275-243.4417,46.5934-340.4958-29.9534-53.1642-81.5099-77.5385-139.2966-90.0728l14.1087-113.265c1.4269-1.4871,28.2057,12.4075,31.8487,14.4545,76.0367,42.724,128.9501,117.8429,148.8189,202.4892,7.9825,3.4507,16.5734,4.2175,24.64,7.698,23.9984,10.3546,35.5018,29.6776,37.2818,55.3225,2.2122,31.8725,2.1729,81.4076-.0002,113.3037-2.6845,39.4018-25.9899,57.0713-62.5537,65.3283l-18.3515,51.4692h49.2419c28.4356,0,62.4711,33.978,62.4711,62.4711v71.2906l-55.3405-29.1792-48.743-19.6091-11.3532-33.5667c-22.8204,13.9109-44.3814,29.8093-68.272,41.9624-101.5026,51.6343-230.1597,61.1625-339.8962,32.6256-55.5705-14.451-107.4732-40.1998-153.2513-74.5551-7.5015,9.7561-10.4197,21.6095-13.9819,33.0991l-57.8728,24.4421-45.0397,24.781v-72.7605c0-28.764,35.6187-61.0012,63.941-61.0012h47.772Z"/><path class="cls-2" d="M351.3147,947.8355c1.0904-91.8559-17.2841-182.9998-55.849-266.046,133.8572,58.0062,291.8429,58.983,425.5172-.0213,2.1349.9068.0767,2.7863-.4414,3.9678-7.3754,16.8174-15.045,33.4506-21.257,50.769-24.2049,67.4814-34.319,139.5714-33.4094,211.3304"/><path class="cls-4" d="M689.3937,947.8355c-2.2417-83.6911,13.2641-169.0214,48.2475-244.9993,4.4614-9.6893,14.0587-31.0885,20.1564-38.64,2.013-2.493,33.1108-21.9221,35.1842-21.96,7.558,2.0402,57.1438,21.6596,58.0727,25.6934-41.4608,62.564-68.5052,132.4055-77.6672,207.3541-1.1858,9.7002-2.6898,20.9771-3.2091,30.5988-.608,11.2655,1.9057,28.1901.0597,38.2774-.3012,1.6461-.7471,2.7498-2.204,3.6756h-78.6401Z"/><path class="cls-9" d="M327.7962,947.8355h-80.845c1.7349-82.3305-16.4318-165.3439-55.6048-237.6419-4.0791-7.5284-24.6559-37.7358-25.2655-42.4574-.3225-2.4978,8.2669-5.5847,10.7881-6.7952,15.2163-7.3054,31.5587-12.7345,47.3395-18.7055l35.1778,21.9667c48.8855,85.632,70.3002,185.052,68.4099,283.6332Z"/><path class="cls-10" d="M793.7572,947.8355c-3.3691-86.7806,18.9927-176.5811,65.5352-249.7602,2.1777-3.424,11.8133-19.3106,14.5306-19.2942l16.973,9.6326,1.2624,2.6474c-13.8037,25.7547-35.0012,54.728-32.1425,85.5179,2.05,22.079,35.373,94.3311,53.0045,107.215,27.3359,19.9753,73.3826-2.0713,104.2696-2.1112l-.0066,66.1528h-223.4261Z"/><path class="cls-8" d="M223.4327,947.8355H.0066l-.0066-66.1528c31.1756.1285,76.492,21.8734,104.2778,2.1195,16.8333-11.9674,51.1616-86.2198,52.986-107.2355,2.6948-31.0423-17.4403-59.7915-32.1697-85.4781-.3514-3.6982,14.8784-9.9613,18.2725-12.3084,1.4262-.2293,1.9859.7647,2.8733,1.548,4.2278,3.7318,19.3363,30.4748,23.0579,37.2148,38.3905,69.5269,57.1396,150.6948,54.1349,230.2924Z"/><path class="cls-4" d="M421.8766,136.4496l-14.4938-118.0784c1.059-3.2255,21.2653-8.2316,25.9394-9.3798,57.3894-14.098,120.4767-11.834,176.0415,8.3252l-15.4422,118.5136-61.0125-5.3245c-37.1695-.0125-74.2819.554-111.0324,5.944Z"/><path class="cls-4" d="M1014.2522,858.1604l-74.0283,11.6875c-16.8862-1.173-23.5142-16.8958-30.5972-29.7973-7.6277-13.8937-24.2293-47.4593-26.0849-62.1106-3.9011-30.8016,22.2206-63.6633,37.505-88.7125,4.5343-1.0847,30.3027,28.006,34.3598,33.0178,31.5687,38.9975,50.4267,86.5517,58.8457,135.9153Z"/><path class="cls-4" d="M4.6149,857.9759c6.8055-64.4414,39.9805-127.529,90.0405-168.778,5.7842,1.2359,32.585,51.9353,35.4144,60.2236,10.6161,31.0982-10.7773,69.6167-26.4032,97.0217-11.9941,21.0355-15.4439,23.7484-40.9998,21.8285-18.657-1.4016-39.485-7.089-58.0519-10.2958Z"/><polygon class="cls-5" points="530.0766 839.638 537.7464 830.1863 548.5246 827.862 555.4522 820.8415 566.7177 816.7053 573.5401 816.7053 583.9783 814.9396 598.2308 817.9199 608.302 817.9199 616.9309 824.2843 624.8001 825.268 635.1285 831.1699 641.8367 840.7751 646.9624 850.4561 651.3589 859.2042 652.9726 871.5503 649.3741 878.4523 637.0959 883.3038 629.5815 887.7225 615.9472 891.1731 608.0779 895.1077 603.104 903.8948 593.3231 910.3544 581.0123 910.3544 577.0927 913.7972 566.7643 916.7482 555.6719 913.1482 549.0585 907.8952 533.8118 907.8952 525.2959 911.4184 515.6141 907.8952 508.7285 899.5342 506.2693 889.6976 507.253 880.3528 512.709 870.2703 514.1386 862.1551 516.1059 857.7287 519.5487 854.7777 522.4997 847.8921 530.0766 839.638"/><path class="cls-7" d="M507.8151,903.4729l-17.2129.0562-18.5207,5.7095h-95.343c-1.1532-2.3344-3.5439-3.9376-6.3142-3.9376-3.8814,0-7.0314,3.1501-7.0314,7.0314s3.1501,7.0314,7.0314,7.0314c2.7703,0,5.161-1.6032,6.3142-3.9376h95.7085l18.8442-5.822h21.4176l-4.8938-6.1314ZM373.2792,915.4263c-.7454.7031-1.7579,1.125-2.8548,1.125-2.3204,0-4.2188-1.8985-4.2188-4.2188s1.8984-4.2188,4.2188-4.2188c1.0969,0,2.1094.4219,2.8548,1.125.8437.7594,1.3641,1.8704,1.3641,3.0938s-.5203,2.3344-1.3641,3.0938Z"/><path class="cls-7" d="M515.845,821.2194l-99.5926-.4219c-1.1109-2.4188-3.5578-4.0922-6.3845-4.0922-3.8814,0-7.0314,3.1501-7.0314,7.0314s3.1501,7.0314,7.0314,7.0314c2.7141,0,5.0626-1.5329,6.2298-3.7829h.0141l98.5237,1.3922,11.5315,10.4065,1.8704-2.0111c.4781-1.5469,1.1391-2.011,2.0391-3.1219l-14.2316-12.4316ZM413.5242,825.8461c-.7312,1.2516-2.0953,2.1094-3.6563,2.1094-2.3204,0-4.2188-1.8985-4.2188-4.2188s1.8984-4.2188,4.2188-4.2188c1.561,0,2.9251.8578,3.6563,2.1094.3516.6188.5625,1.35.5625,2.1094s-.211,1.4907-.5625,2.1094Z"/><path class="cls-7" d="M491.2913,851.1592l-21.0942-11.2503h-28.435c-.9-2.8548-3.572-4.922-6.7221-4.922-3.8814,0-7.0314,3.1501-7.0314,7.0314s3.1501,7.0314,7.0314,7.0314c2.6016,0,4.8658-1.4063,6.0892-3.5157h27.6615l21.0942,11.2503h24.3006c.8859-.9985,1.8984-1.8142,2.9813-2.4329-.0282-1.0547.0562-2.1234.2812-3.1922h-26.1568ZM437.3744,845.5341c-.675.4359-1.4766.7031-2.3344.7031-2.3204,0-4.2188-1.8985-4.2188-4.2188s1.8984-4.2188,4.2188-4.2188c1.561,0,2.9251.8578,3.6563,2.1094.3516.6188.5625,1.35.5625,2.1094,0,1.4625-.7594,2.7563-1.8845,3.5157Z"/><path class="cls-7" d="M510.262,865.9252h-18.3098l-22.5005-11.2503h-6.8626c-1.0969-2.4751-3.572-4.2188-6.4549-4.2188-3.8814,0-7.0314,3.1501-7.0314,7.0314s3.1501,7.0314,7.0314,7.0314c2.8829,0,5.3579-1.7438,6.4549-4.2188h5.5408l22.5005,11.2503h16.3972c.9563-1.6032,2.0532-2.7141,3.2204-3.4736-.0562-.7031-.0421-1.4204.0141-2.1516ZM459.2702,860.3c-.7734.8578-1.8984,1.4063-3.136,1.4063-2.3204,0-4.2188-1.8985-4.2188-4.2188s1.8984-4.2188,4.2188-4.2188c1.2375,0,2.3625.5485,3.136,1.4063.6751.7453,1.0829,1.7438,1.0829,2.8126s-.4078,2.0672-1.0829,2.8126Z"/><path class="cls-7" d="M491.3195,882.0974l-16.9879-9.5487c.0562-.3234.0844-.6609.0844-.9984,0-3.8814-3.1501-7.0314-7.0314-7.0314s-7.0314,3.1501-7.0314,7.0314,3.1501,7.0314,7.0314,7.0314c1.4907,0,2.8688-.4641,4.0079-1.2516l18.4645,10.3924h13.6972c0-.1969,0-.4079.0141-.6188l.1969-3.3751c.0422-.5625.0985-1.1109.1687-1.6312h-12.6143ZM468.383,875.6425c-.3235.0844-.661.1266-.9985.1266-2.3204,0-4.2188-1.8985-4.2188-4.2188s1.8984-4.2188,4.2188-4.2188c2.1235,0,3.8954,1.5891,4.1766,3.6563.0282.1828.0422.3656.0422.5625,0,1.9687-1.3781,3.6422-3.2204,4.0922Z"/><path class="cls-7" d="M504.2994,894.5289c-.1828-.8578-.3375-1.7156-.45-2.5875h-62.0873c-.9-2.8548-3.572-4.922-6.7221-4.922-3.8814,0-7.0314,3.1501-7.0314,7.0314s3.1501,7.0314,7.0314,7.0314c2.6016,0,4.8658-1.4063,6.0892-3.5157h64.028l-.8578-3.0376ZM437.3744,897.5665c-.675.4359-1.4766.7031-2.3344.7031-2.3204,0-4.2188-1.8985-4.2188-4.2188s1.8984-4.2188,4.2188-4.2188c1.561,0,2.9251.8578,3.6563,2.1094.3516.6188.5625,1.35.5625,2.1094,0,1.4625-.7594,2.7563-1.8845,3.5157Z"/><path class="cls-6" d="M655.8825,860.8063c-6.3283-19.252-19.0972-39.8681-35.9305-39.8681h-.8016c-2.2782-3.4313-6.0891-5.8502-10.9268-6.8486-1.4907-.2813-2.911-.45-4.2892-.45-1.7297,0-3.3891.239-4.9782.6891-3.2485-2.1376-7.0876-3.2485-11.3065-3.2485-3.8392,0-8.1705.9984-11.3206,2.911-1.7579-.6328-3.6563-.9423-5.7376-.9423-.2672,0-.5485,0-.8578.0422-7.9596.2672-16.327,3.797-20.7146,8.7049-.8719.9422-1.561,1.9407-2.1094,2.9391h-.1125c-.239,0-.4781,0-.7594.0422-6.3986.2813-12.1081,3.2767-15.5253,8.2689-1.111,1.6032-1.9266,1.9266-2.4751,3.7266l-4.4439,4.7673c-1.8984,1.3782-3.5719,3.3048-4.7672,5.6111-1.1813,2.3204-1.7298,4.8095-1.6594,7.2002-2.2922,1.3079-4.2611,3.5157-5.5408,6.3283-.1125.2532-.1969.5204-.3094.7875l-.914,3.361c-.1688,1.0829-.2391,2.1797-.1548,3.2485-1.4766.9563-2.8547,2.4891-3.9797,4.8798l-1.2375,3.361c-.5907,2.039-1.0126,4.5-1.2657,7.411l-.1969,3.3751c-.0703,2.5172.1969,5.0064.7313,7.4251l.9422,3.361c.6751,1.9407,1.5188,3.797,2.5594,5.5548l4.9079,6.1595c3.7548,3.5298,8.044,5.4705,12.2065,5.4705,3.5861,0,6.7361-1.3782,9.0846-3.9798,2.461,1.1812,5.2314,1.8,8.1986,1.8,2.25,0,4.6407-.3516,7.0876-1.0406,3.122,3.6001,8.4377,6.9893,17.7051,7.9596,1.0828.1406,2.0813.1687,3.0516.1687,6.708,0,9.9565-2.7985,11.5456-5.147.2812-.45.5203-.9.7594-1.35,1.6594.5484,3.5298.9,5.7095.9,1.1391,0,2.3485-.1124,3.6001-.3093,10.9268-1.7719,17.2551-9.0002,18.8442-15.0894,2.039-1.3079,3.6001-3.1079,4.5282-5.2173,1.9125.5203,3.8814.8016,5.808.8016,3.2907,0,6.5814-.7594,9.7596-2.2922,3.6282-1.6876,6.497-3.6563,8.6064-5.8361.3516,0,.661.0282,1.0126.0282,7.0876,0,11.0955-3.4595,13.1769-6.3564,4.1766-5.8219,4.2469-14.0769,2.4891-19.3082ZM622.2443,877.8645c.1125.9281.9703,1.561,1.8845,1.4625.914-.1265,1.575-.9563,1.4484-1.8844,0-.0141-.239-2.4469,1.0688-3.7126.8578-.8297,2.2922-1.0829,4.2891-.7594,2.5735.4078,4.486,1.9547,4.7532,3.8673.4359,2.9813-2.8407,6.4548-8.747,9.2533-4.2611,2.025-8.6768,2.0953-12.7269.3656.1407-.0421.3094-.0703.4359-.1265,2.4048-.8719,4.0783-3.1079,4.5001-5.9486.4923-3.347-.9-6.7079-3.6142-8.747-.7453-.5625-1.8-.4079-2.3625.3375-.5484.7453-.4078,1.8.3375,2.3485,2.0814,1.561,2.5594,3.8954,2.3204,5.5689-.239,1.6172-1.1109,2.8407-2.3344,3.2907-1.7579.6469-4.1485-.2531-6.7642-2.5031-.1407-.1828-.2954-.3516-.45-.5344-3.2767-4.1907-6.1174-7.2424-8.6908-9.4502-1.7157-1.4626-3.3189-2.5173-4.8517-3.3048,1.3078-.6609,2.4047-1.5328,3.2626-2.6157,1.7859-2.2501,2.4047-5.2454,1.7438-8.4377-.1828-.9141-1.0688-1.5047-1.9829-1.3078-.914.1828-1.4907,1.0688-1.3078,1.9828.2672,1.2798.4782,3.7126-1.0828,5.6674-1.4485,1.8281-4.1767,2.8406-7.9034,2.9532-2.8969,0-5.9063.675-9.422,1.4766-2.9392.661-6.258,1.4204-10.2378,1.9266-5.6392.7313-8.3392-1.0266-10.0409-4.2328v-.0141c-.014-.0141-.0281-.0282-.0281-.0422-1.0406-1.9687-1.7016-4.472-2.4469-7.2705-1.561-5.8502-3.3189-12.4737-9.7034-16.0457-.8157-.4499-1.8422-.1547-2.2922.6469-.45.8157-.1547,1.8422.6469,2.2922,3.0516,1.7016,4.8095,4.3876,6.047,7.4392-.9844-.3234-2.0391-.4922-3.136-.464-4.3032.1406-7.5518,3.136-8.2971,7.622-.1547.9141.4641,1.786,1.3922,1.9407.0844.0141.1828.0141.2672.0141.8157,0,1.5188-.5766,1.6594-1.4063.7172-4.3314,4.0783-4.7673,5.0907-4.8095,2.0391-.0844,4.4298.9985,4.9501,3.1782.0421.1548.0844.3094.1266.4641.2531.9703.5203,1.9688.8156,2.9532-.4219-.0844-.8297-.1828-1.2656-.1968-4.0642-.1687-8.3955,2.2219-10.5753,5.7516-1.9688,3.1923-1.9688,6.9189,0,10.4768.3093.5625.886.8719,1.4766.8719.2672,0,.5485-.0703.8157-.211.8016-.4499,1.0969-1.4766.6469-2.2782-1.3782-2.5031-1.4063-4.9501-.0845-7.0876,1.5329-2.4751,4.7673-4.3173,7.5799-4.1626,1.0969.0422,2.5594.3938,3.3188,1.8704.0282.0422.0704.0703.0985.1125,2.0532,3.811,5.4845,6.5252,12.1503,6.0329-.8437,1.125-1.4766,2.3907-1.8563,3.7408-.0562.1968-.0844.3796-.1124.5625-.2532.9141-.7454,1.575-1.547,1.9407-1.0125.4641-2.3344.3656-3.2767-.239-.7734-.5062-1.8141-.2813-2.3203.4922-.5062.7875-.2813,1.8281.4922,2.3345,1.0969.7031,2.4048,1.0688,3.7126,1.0688.9703,0,1.9266-.1969,2.7985-.5907.1125-.0562.1969-.1406.3094-.2109.3937,1.2235,1.0266,2.3766,1.9266,3.3609.3375.3656.7875.5485,1.2515.5485.3938,0,.8016-.1406,1.1251-.4359.6891-.6328.7312-1.6876.1124-2.3766-1.8422-2.025-1.561-4.3454-1.2235-5.5548.7313-2.6578,2.8829-4.8798,5.4986-5.6813,1.7579-.3516,3.3609-.7172,4.8798-1.0547,4.3595-.9985,7.6643-1.7297,10.8846-1.1813-2.2641.7172-3.7829,2.0814-4.5985,2.9673-2.025,2.2359-3.3892,5.7376-2.1798,7.7205.3235.5344.9141.8578,1.5047.8578.2813,0,.5766-.0844.8297-.239.8016-.4923,1.0688-1.4626.5906-2.2641-.1547-.5907.5485-2.9392,2.5594-4.5986,1.6735-1.3501,4.5986-2.5172,9.1127-.3656,2.3486,2.025,4.9783,4.8938,8.1424,8.9299.1969.2532.4078.4641.6188.7172.0421.0422.0703.1125.1265.1548.0141.0281.0282.0421.0563.0562.9703,1.1391,1.9969,2.1797,3.0798,3.0798,1.1672,1.2656,1.3078,3.4173.3516,5.1189-1.6735,2.9532-5.9627,3.9657-11.7566,2.7563-.9-.1828-1.8.3938-1.9828,1.3078-.1969.9.3937,1.786,1.2938,1.9829,1.9407.4078,3.6423.5765,5.147.5765.8719,0,1.6594-.0703,2.4047-.1687-1.125,3.2344-5.1048,8.2268-13.1628,9.5206-8.2689,1.336-11.3908-4.2611-11.9393-5.4423-.0703-.1687-.1125-.2672-.1407-.2954-.3796-.8297-1.35-1.1953-2.1797-.8297-.8297.3516-1.2375,1.3078-.9,2.1516.0703.1687.1406.3375.225.5062.7031,1.7439,1.7579,5.5689.211,7.7206-1.5047,2.1234-5.2455,2.1938-8.1143,1.8984-6.7361-.7172-11.4331-2.9392-13.9784-6.5814-2.7282-3.9236-2.3345-8.5784-1.5188-11.7987.2251-.9-.3093-1.8141-1.2094-2.0391-.9-.225-1.8141.3235-2.0532,1.2235-.9843,3.8954-.886,7.6221.1969,10.8425-7.1439,2.5313-12.9519,1.4625-16.0456-3.0938-2.5594-3.7688-2.4188-9.1127.3093-11.9112.6469-.6751.6328-1.7438-.0421-2.3907-.661-.6469-1.7157-.6188-2.3766.0421-3.8392,3.9516-4.1345,11.0534-.661,16.1583.0703.1124.1547.1968.239.3093-1.4203,3.3891-3.7969,4.8938-6.947,4.3173-5.7939-1.0829-13.6128-9.619-13.2049-21.0802.4078-11.0394,3.136-12.98,3.9657-13.3175,1.0266-.4078,1.8703.3375,1.9969.4641.5344.6047,1.1532,1.1953,1.8704,1.7438.2953.239.6609.3516,1.0125.3516.5062,0,1.0126-.225,1.336-.6609.5765-.7313.4359-1.786-.2954-2.3486-3.9938-3.0798-3.8532-7.5658-1.9548-10.6736,1.0829-1.7438,2.8829-3.136,4.4017-2.7,1.3501,1.7156,3.4876,3.4032,6.8767,4.7532-2.0953,2.9954-3.7407,7.5799-1.8984,12.4597-1.547.0844-3.2064.6188-4.8095,1.6594-5.4142,3.5578-8.9158,11.7565-3.7969,21.3473.2953.5765.886.9,1.4766.9.2672,0,.5485-.0703.8016-.1969.8156-.45,1.125-1.4625.6891-2.2782-4.1345-7.7346-1.5047-14.2175,2.672-16.9598,1.8-1.1672,4.2751-1.7579,5.4563-.2672,0,0,.0141.0141.0282.0141.3094.3796.6469.7594,1.0126,1.1391,2.6578,2.7282,5.9345,3.825,9.0283,3.825.1406,0,.2954-.0281.4359-.0281.0703,0,.1265.0281.1969.014,1.2797-.1124,2.6016-.0421,3.9797.1828-1.4203.7031-2.7141,1.6173-3.6563,2.7141-2.7844,3.2204-2.7,7.158.211,10.5331.3375.3796.8015.5765,1.2797.5765.3797,0,.7734-.1266,1.0969-.4078.7031-.6047.7734-1.6594.1687-2.3625-2.2782-2.6438-1.3641-4.7955-.211-6.1455,1.8141-2.0953,5.4564-3.4594,8.2127-2.686,2.3906,1.0266,4.922,2.3204,7.6502,3.8391,1.0547.5766,2.1516,1.0126,3.2625,1.3501-2.7141,2.3063-3.4173,5.2876-2.9672,7.7768.7172,3.8953,4.036,6.6798,7.7065,6.6798.3796,0,.7734-.0282,1.1531-.0845.9282-.1547,1.547-1.0125,1.3923-1.9406-.1407-.9141-.9985-1.5329-1.9267-1.3923-2.5594.4359-4.6126-1.6735-5.0204-3.8673-.4641-2.5875,1.2656-5.7939,7.5236-7.0595.0422-.0141.0703-.0422.1266-.0563,1.1391-.3656,2.1797-.9281,3.1219-1.6453,1.0688,1.2938,2.7423,2.3766,4.3173,3.0657,1.7297.7594,3.7407,1.2657,5.7798,1.2657.8297,0,1.6594-.0985,2.4751-.2813.6469.2672,1.9548.9281,2.5454,2.0532.3797.7171.4078,1.561.0844,2.5594-.2954.8859.1828,1.8281,1.0688,2.1234.1687.0563.3516.0844.5203.0844.7172,0,1.3641-.4499,1.6032-1.1531.6047-1.8563.5062-3.6564-.2954-5.1752-.4781-.914-1.1391-1.6172-1.8281-2.1656.6469-.4782,1.2657-1.0547,1.8281-1.7438.9985-1.2235,1.6876-2.4048,2.1235-3.5439.6188-1.6453,1.7016-2.6157,2.9672-2.7,1.0547-.0703,1.9969.4922,2.4891,1.4204.4359.8156,1.4625,1.125,2.2641.6891.8297-.4359,1.1391-1.4485.7031-2.2782-1.1109-2.0813-3.375-3.347-5.6673-3.1923-.8297.0563-1.6173.2954-2.3486.675-.5484-2.2922-1.9125-4.0782-3.1078-5.0626-.7172-.5906-1.7579-.4781-2.3486.2251-.5906.7171-.5062,1.7718.211,2.3625.4641.4078,4.4298,4.0079.1125,9.2673-2.5173,3.0657-6.2018,2.6297-8.1705,2.0814-2.8829-.7876-4.6548-2.3766-5.0064-3.0938,2.025-3.2485,2.0672-7.6643-.0141-12.5581-.3656-.8438-1.3641-1.2516-2.2079-.886-.8578.3656-1.2516,1.3641-.886,2.2079,1.9688,4.6126,1.6735,8.5361-.8297,10.7862-.7171.6468-1.575,1.1109-2.5172,1.4204-.4641.0985-.9.1968-1.336.3234-2.25.3375-4.8376-.1406-7.2845-1.4907-2.1516-1.1953-4.1907-2.25-6.1595-3.1782-.6047-.3797-1.2516-.6469-1.9266-.8578-1.7719-.7594-3.4735-1.3781-5.1329-1.8141,2.7282-2.0954,4.1485-5.1189,3.6563-8.1846-.1406-.9141-.9703-1.5188-1.9125-1.3923-.9282.1407-1.547.9985-1.4063,1.9267.4359,2.7141-1.6454,4.7954-3.7267,5.8501-3.1079,1.5469-7.6923,1.5891-10.9971-1.8001-7.3689-7.5657-.3234-14.7519-.0141-15.0471.422-.422.5907-1.0266.45-1.6032-.1406-.5766-.5765-1.0266-1.1391-1.2094-6.0329-1.8422-9.2111-4.9783-8.9439-8.8456.2672-3.7547,3.586-6.9751,5.7095-7.3126.8437-.1266,1.3501.1827,1.7157,1.0828,0,.0282.0281.0422.0421.0844.675,1.9407,1.8001,3.7267,3.3891,5.1751.6892.6328,1.7579.5766,2.3766-.1124.6328-.6751.5766-1.7439-.0984-2.3766-2.8407-2.5876-3.7548-6.5674-2.3626-10.3784,1.3219-3.6564,5.0627-7.6643,11.5878-7.9455,2.1656-.0844,3.9376.5766,5.4704,2.0532,2.011,1.9125,3.2767,4.8798,4.0783,7.8611v.0141q.0141.0141.0141.0282c1.35,5.0345,1.3781,10.0689,1.3781,10.1533.0141.9282.7594,1.6735,1.6876,1.6735s1.6876-.7453,1.6876-1.6735c0-.2109-.0141-2.1938-.3516-4.922,1.6031,1.0829,3.4876,1.9407,5.4282,2.3766,1.0688.2391,2.1235.3516,3.1501.3516,3.9235,0,7.5517-1.6875,10.4487-4.9079.6328-.6891.5766-1.7438-.1265-2.3766-.6751-.6188-1.7438-.5625-2.3625.1266-3.6142,4.0079-7.6362,4.1345-10.3784,3.5157-3.7829-.8297-6.7642-3.4173-7.3549-5.3299l-.0141-.014c-.2671-.9985-.6047-1.997-.9843-2.9814-.7031-3.0516-.1548-5.4563,1.5891-7.1298,2.1094-1.997,5.4423-2.4188,7.6361-1.8001.9.239,1.8281-.2813,2.0813-1.1672.2531-.9-.2813-1.8281-1.1672-2.0813-3.6985-1.0266-8.1564.0422-10.8705,2.6157-1.1813,1.1391-1.9969,2.5173-2.461,4.0783-.2531-.2813-.5062-.5766-.7734-.8438-.5766-.5484-1.1954-1.0125-1.8281-1.4063.1406-1.125.7171-2.2782,1.7438-3.4173,3.1501-3.5157,9.8581-6.2439,15.9331-6.497,4.0783-.1828,7.2002,1.6032,7.7627,4.3876.5485,2.672-1.2938,6.7361-8.283,9.408-.8719.3235-1.3078,1.3078-.9843,2.1657.2672.675.9,1.0828,1.575,1.0828.1968,0,.4078-.0281.6047-.1124,2.9672-1.1251,5.1892-2.5314,6.8204-4.036.5344,2.475,1.8142,4.6407,3.8532,6.286,1.1954.9563,2.5735,1.6312,4.008,2.0813.0421.0141.0703.0422.0985.0563,1.9828.675,3.347,2.4047,3.7407,4.7251.5203,3.0375-.7453,6.2439-3.2063,8.1564-3.8392,2.9954-10.055,2.8266-17.5082-.45-.8578-.3796-1.8422.0141-2.2219.8579-.3656.8437.0141,1.8422.8578,2.2078,2.2219.9844,4.2329,1.6454,6.0751,2.0954-1.7719,1.2797-3.2767,2.9672-4.0219,4.936-.3375.8719.1125,1.8422.9703,2.1657.1969.0703.4078.1124.6047.1124.675,0,1.3078-.4219,1.561-1.0828,1.1532-3.0376,5.2173-5.3579,8.0861-5.4002.0282,0,.0563-.0141.0703-.0281,3.6705-.2954,6.1174-1.6173,7.5799-2.7563,2.4751-1.9266,4.0501-4.7673,4.486-7.7908,1.5891-.5625,4.5142-.7594,7.3548.4078,3.3189,1.3501,5.6251,4.2048,6.6939,8.2408.0141.0563.0282.0985.0422.1407,1.1672,3.7829,1.6312,8.5783-2.7704,9.9986-.886.2813-1.3781,1.2375-1.0828,2.1235.225.7031.886,1.1532,1.5891,1.1532.1828,0,.3516-.0282.5203-.0845,3.1922-1.0266,5.1048-3.375,5.6673-6.6095,2.1938,1.7859,4.6407,2.1235,6.1595,2.1235h.3656c4.6407-.1828,9.0986-3.2345,9.7314-6.6939.1687-.9141-.4359-1.786-1.336-1.9548-.9281-.1828-1.8.4359-1.9687,1.3501-.3094,1.6735-3.3048,3.811-6.5392,3.9376-2.461.0844-5.6954-.9282-7.1158-6.3283v-.0141h-.0141c0-.0141-.014-.0422-.014-.0562-.8579-3.1923-2.2783-5.4986-3.8392-7.158-1.575-1.6594-3.3047-2.672-4.8095-3.2907-3.0516-1.2374-6.2298-1.3219-8.6487-.7734v-.0985c-.239-1.4203-.7594-2.7141-1.4907-3.825,1.111-.1969,2.1797-.5203,3.1641-1.0547.6891-.3516,1.2798-.8016,1.8422-1.2938.0282-.0282.0704-.0282.0844-.0563.7454-.5625,1.4767-1.336,2.2642-2.1516,3.0094-3.1782,5.4423-5.3017,9.1689-3.7267.8579.3656,1.8422-.0421,2.2079-.9.3656-.8437-.0421-1.8422-.9-2.1938-3.8532-1.6453-6.8907-.5625-9.2814,1.1532.0422-.7734.0562-1.5891-.0141-2.4188-.0844-.9282-.886-1.6454-1.8141-1.547-.9282.0844-1.6173.9-1.547,1.8282.3376,3.9656-.9422,6.933-3.586,8.3392-2.7703,1.4766-6.5392,1.0266-9.1549-1.0829-1.5469-1.2375-3.9235-4.1345-2.4328-9.4503v-.0703c.2531-1.1812.239-2.3062.0282-3.3188-.2672-1.3078-.8719-2.4469-1.6876-3.4454.9281-.6468,2.7141-1.5469,5.2595-1.9969,2.4469-.4219,6.8064-.661,10.6596,1.9548-3.0798,2.461-4.8235,5.9485-5.4564,8.4377-.2251.9.3234,1.8281,1.2235,2.0531.9.2391,1.8141-.3234,2.0391-1.2235.1124-.4359,2.8547-10.7862,13.7534-8.5924,5.4283,1.0969,8.3112,4.5845,7.6924,9.2955-.1547,1.2095-.5485,2.4048-1.1391,3.5157-.0141.0141-.0141.0282-.0282.0422-1.8,3.361-5.4845,5.9767-10.3081,5.6813-.9422-.0282-1.7297.661-1.7859,1.575-.0563.9282.6609,1.7298,1.5891,1.786.2953.0141.6047.0282.9.0282,3.0095,0,5.6674-.9,7.833-2.3345-.3656,5.5408,1.4204,12.2206,7.608,15.7785.2531.1547.5484.225.8297.225.5766,0,1.1532-.2954,1.4626-.8437.464-.8016.1827-1.8282-.6188-2.2922-2.3345-1.3501-3.8392-3.2344-4.7392-5.3158.3375.211.6891.4079,1.0547.5625,1.4484.6468,3.0235.9703,4.5423.9703,1.2656,0,2.4891-.239,3.6001-.661.0562-.0141.1125-.0141.1687-.0421,3.6142-1.7438,6.722-.0563,8.1846,2.3907,1.8141,3.0094,1.5891,7.5517-3.0235,10.9268-.7453.5485-.9,1.6032-.3516,2.3486.3235.4499.8297.6891,1.3501.6891.3516,0,.7031-.1125.9985-.3235,1.0687-.7875,1.9547-1.6453,2.686-2.5172l.0282-.0282c1.0266-1.1672,2.1375-1.4203,3.4453-.7734,2.3766,1.1813,4.1345,4.6548,3.6282,7.158-.4922,2.3625-2.8829,3.1782-5.0626,3.4173-1.3219-1.2235-3.122-2.0953-5.2173-2.4188-3.0938-.5062-5.4985.0563-7.1579,1.6594-2.5454,2.461-2.0814,6.3846-2.0673,6.5533ZM646.6573,876.6692c-1.8141,2.1094-4.472,3.0657-7.9314,2.8969.4078-1.3501.3937-2.4751.2953-3.2064-.0703-.4359-.1687-.8437-.2953-1.2375,4.7813-1.1109,6.0048-4.3173,6.3142-5.7939.8297-4.0079-1.6594-8.9862-5.4283-10.8425-.8578-.4359-1.7297-.6468-2.6016-.675.8157-3.0375.2531-6.0751-1.1391-8.3674-1.6032-2.6719-4.0922-4.2469-6.8486-4.6266.7734-1.7016,1.125-4.1345.0282-7.4955-.2813-.886-1.2235-1.3781-2.1094-1.0828-.886.2812-1.3641,1.2235-1.0829,2.1094.6469,1.9969,1.0266,4.7392-.8719,6.4407-1.6453,1.4907-4.6407,1.7579-7.1158.661-1.3078-.5766-3.4454-2.025-3.572-5.1189.1828-2.1517.7172-3.9939,1.3219-5.0486.0141-.0281.0141-.0703.0282-.0984.8016-1.4767,1.3219-3.0517,1.5188-4.6408.1125-.8156.1265-1.6594.0562-2.5313,13.1066-1.9687,25.1303,15.7785,31.4305,34.9321,1.125,3.4173,1.2515,9.9424-1.997,13.7253Z"/><path class="cls-7" d="M409.7017,816.964c-3.8119,0-6.902,3.0902-6.902,6.902s3.0902,6.902,6.902,6.902,6.9021-3.0901,6.9021-6.902-3.0902-6.902-6.9021-6.902ZM409.7017,826.7845c-1.6118,0-2.9183-1.3066-2.9183-2.9184s1.3066-2.9184,2.9183-2.9184,2.9184,1.3066,2.9184,2.9184-1.3066,2.9184-2.9184,2.9184Z"/><path class="cls-7" d="M435.04,835.1164c-3.8119,0-6.902,3.0902-6.902,6.902s3.0902,6.902,6.902,6.902,6.9021-3.0901,6.9021-6.902-3.0902-6.902-6.9021-6.902ZM435.04,844.9368c-1.6118,0-2.9183-1.3066-2.9183-2.9184s1.3066-2.9184,2.9183-2.9184,2.9184,1.3066,2.9184,2.9184-1.3066,2.9184-2.9184,2.9184Z"/><path class="cls-7" d="M456.1342,850.5855c-3.8119,0-6.902,3.0902-6.902,6.902s3.0902,6.902,6.902,6.902,6.9021-3.0901,6.9021-6.902-3.0902-6.902-6.9021-6.902ZM456.1342,860.4059c-1.6118,0-2.9183-1.3066-2.9183-2.9184s1.3066-2.9184,2.9183-2.9184,2.9184,1.3066,2.9184,2.9184-1.3066,2.9184-2.9184,2.9184Z"/><path class="cls-7" d="M467.3845,864.6483c-3.8119,0-6.902,3.0902-6.902,6.902s3.0902,6.902,6.902,6.902,6.9021-3.0901,6.9021-6.902-3.0902-6.902-6.9021-6.902ZM467.3845,874.4687c-1.6118,0-2.9183-1.3066-2.9183-2.9184s1.3066-2.9184,2.9183-2.9184,2.9184,1.3066,2.9184,2.9184-1.3066,2.9184-2.9184,2.9184Z"/><path class="cls-7" d="M435.04,887.1488c-3.8119,0-6.902,3.0902-6.902,6.902s3.0902,6.902,6.902,6.902,6.9021-3.0901,6.9021-6.902-3.0902-6.902-6.9021-6.902ZM435.04,896.9692c-1.6118,0-2.9183-1.3066-2.9183-2.9184s1.3066-2.9184,2.9183-2.9184,2.9184,1.3066,2.9184,2.9184-1.3066,2.9184-2.9184,2.9184Z"/><path class="cls-7" d="M370.4244,905.4305c-3.8119,0-6.902,3.0902-6.902,6.902s3.0902,6.902,6.902,6.902,6.9021-3.0901,6.9021-6.902-3.0902-6.902-6.9021-6.902ZM370.4244,915.2509c-1.6118,0-2.9183-1.3066-2.9183-2.9184s1.3066-2.9184,2.9183-2.9184,2.9184,1.3066,2.9184,2.9184-1.3066,2.9184-2.9184,2.9184Z"/></svg>
